<?xml version="1.0" encoding="iso-8859-1"?>
<!-- Generator: Adobe Illustrator 16.0.0, SVG Export Plug-In . SVG Version: 6.00 Build 0)  -->
<!DOCTYPE svg PUBLIC "-//W3C//DTD SVG 1.1//EN" "http://www.w3.org/Graphics/SVG/1.1/DTD/svg11.dtd">
<svg version="1.1" id="Capa_1" xmlns="http://www.w3.org/2000/svg" xmlns:xlink="http://www.w3.org/1999/xlink" x="0px" y="0px"
	 width="502.109px" height="502.109px" viewBox="0 0 502.109 502.109" style="enable-background:new 0 0 502.109 502.109;"
	 xml:space="preserve">
<g>
	<path d="M368.899,50.292c-37.899-39.2-108.3-44.1-159.1-44.7c-54.5-0.6-123,8-162.8,49c-3.7,3.7-5.5,11-1.8,15.9
		c54.5,71.6,222.8,109.5,297.4,52c6.101-4.9,8.601-13.5,2.4-19.6c-51.4-53.9-139.5-65.5-206.2-36.1c-14.7,6.7-1.8,28.2,12.9,22
		c51.4-22.6,119.3-14.7,164,21.4c-65.5,33-192.2,7.3-241.101-44.7c67.3-53.2,224.601-50.2,282.101,8.6
		c23.899,24.5,10.399,98.5,8.6,128.5c-3.7,53.2-11,105.9-20.8,158.5c-7.3,39.2-18.4,91.2-63,103.4
		c-43.5,12.199-124.8,9.199-164-12.9c-49.6-26.9-65.5-115.1-75.3-163.4C28.1,218.391,23.8,147.391,15.9,77.091
		c-1.2-9.8-15.9-10.4-15.9,0c2.4,82,6.1,164,23.3,244.799c11,53.2,34.9,127.3,86.3,155.4c46.5,25.7,127.3,21.399,177.5,11.6
		c47.7-8.6,67.9-63,77.7-104.7c14.1-63,22-128.5,26.3-193.399C394,147.591,402.6,84.591,368.899,50.292z"/>
	<path d="M478.5,154.292c-24.5-26.3-55.101,8-67.3,28.8c-4.301,7.3,6.1,15.9,12.199,9.2c12.9-15.3,34.9-43.5,47.101-12.9
		c10.399,26.3,10.399,56.3,8.6,83.799c-2.399,30.601-9.2,62.4-25.7,88.7c-20.199,31.8-39.199,14.101-66.699,9.2
		c-8-1.2-16.5,6.7-11,14.7c20.199,31.8,67.3,24.5,89.399,0c27.5-30.601,34.9-78.3,36.7-117.5
		C502.899,225.292,502.3,179.991,478.5,154.292z"/>
	<path d="M420.3,209.991c-13.5-4.3-18.4,15.3-5.5,20.8c15.9,6.7,34.9,17.7,31.8,37.899c-3.1,20.801-26.3,29.4-44.1,34.301
		c-7.3,1.8-5.5,12.899,1.8,12.899c28.2-0.6,57.5-15.3,63.6-44.7C473.6,241.191,446,217.991,420.3,209.991z"/>
</g>
<g>
</g>
<g>
</g>
<g>
</g>
<g>
</g>
<g>
</g>
<g>
</g>
<g>
</g>
<g>
</g>
<g>
</g>
<g>
</g>
<g>
</g>
<g>
</g>
<g>
</g>
<g>
</g>
<g>
</g>
</svg>
